<?xml version="1.0" encoding="utf-8"?>
<!-- Generator: Adobe Illustrator 25.0.1, SVG Export Plug-In . SVG Version: 6.00 Build 0)  -->
<svg version="1.1" id="Warstwa_1" xmlns="http://www.w3.org/2000/svg" xmlns:xlink="http://www.w3.org/1999/xlink" x="0px" y="0px"
	 viewBox="0 0 595.3 841.9" style="enable-background:new 0 0 595.3 841.9;" xml:space="preserve">
<style type="text/css">
	.st0{fill:none;}
</style>
<image style="overflow:visible;" width="376" height="352" xlink:href="enterInto.png"  transform="matrix(1 0 0 1 106 226)">
</image>
<path class="st0" d="M134,265c0,0,11,77,35,71s22-56,61-50s21,70,40,66s66-2,70-24s17-64,31-64s20,62,32,63s17-37,23-38s1,68,14,61
	c12.3-6.6-19.2,35-17.6,36.2c0.2,0.1,0.6-0.1,0.6-0.2c-0.1-1.2-35.4,0.8-68,1c-90.2,0.7-89.1-12.5-130-5c-23.2,4.2-42.5,11.9-66,4
	c-7-2.4-16.3-6.8-20-3c-3.8,3.8-0.9,15.2,6,21c6.7,5.7,15.4,4.6,26,4c21.2-1.1,4.4,2.6,48,2c32.6-0.4,37.4-2.4,63-3
	c28-0.6,33.3,1.5,60,2c19.5,0.3,47.6-0.3,82-5"/>
</svg>
