<?xml version="1.0" encoding="utf-8"?>
<svg xmlns="http://www.w3.org/2000/svg"
     viewBox="0 0 595.3 841.9"
     style="display:block;overflow:visible">

  <defs>
    <!-- delikatna poświata dla kuli -->
    <filter id="glow">
      <feGaussianBlur stdDeviation="20" result="b"/>
      <feMerge><feMergeNode in="b"/><feMergeNode in="SourceGraphic"/></feMerge>
    </filter>
    <!-- kula-błysk -->
    <radialGradient id="flashGrad" cx="50%" cy="50%" r="50%">
      <stop offset="0" stop-color="#ffffff" stop-opacity="1"/>
      <stop offset="1" stop-color="#ffffff" stop-opacity="0"/>
    </radialGradient>
  </defs>

  <!-- TWOJE LOGO: obrazek umieszczony w tym samym katalogu co SVG -->
  <!-- (zastępuje poprzedni xlink:href do E:\... ) -->
  <image
    x="104.4554" y="302.4838"
    width="377.76" height="391.92"
    opacity="0.7"
    href="wbbaby24white2.png"
    preserveAspectRatio="xMidYMid meet"/>

  <!-- ŚCIEŻKA RUCHU – Twoja, niewidoczna (możesz dać stroke, by ją podejrzeć) -->
  <path id="motionPath" fill="none" stroke="none"
        d="M209.2,351.6c0,0-34.9-42.8-70.6-4.3s19.2,79.1,25,73.4c5.7-5.7-15.7,51.3-15.7,51.3l-0.7,168.2
           c0,0,39.2,5,49.2-2.1s-2.9-154,7.8-155.4s17.1,3.6,17.1,3.6l-2.1,197.5c0,0,49.9,7.1,56.3-0.7c6.4-7.8-3.6-187.5,1.4-198.2
           c5-10.7,166.8,8.6,176.1-4.3c9.3-12.8,13.5-51.3,2.1-53.5c-11.4-2.1-173.2,7.8-180.4,2.9c-7.1-5-10.7-14.3-2.9-18.5
           s152.6,5,156.8-4.3s0.7-50.6-3.6-56.3s-151.8-1.4-151.8-1.4"/>

  <!-- BŁYSK: kula poruszająca się po ścieżce -->
  <circle r="38" fill="url(#flashGrad)" filter="url(#glow)" pointer-events="none">
    <!-- animacja SMIL; 'path' = Twoje d; rotate=auto dla naturalnego obrotu -->
    <animateMotion dur="3s" repeatCount="indefinite" rotate="auto"
      path="M209.2,351.6c0,0-34.9-42.8-70.6-4.3s19.2,79.1,25,73.4c5.7-5.7-15.7,51.3-15.7,51.3l-0.7,168.2
           c0,0,39.2,5,49.2-2.1s-2.9-154,7.8-155.4s17.1,3.6,17.1,3.6l-2.1,197.5c0,0,49.9,7.1,56.3-0.7c6.4-7.8-3.6-187.5,1.4-198.2
           c5-10.7,166.8,8.6,176.1-4.3c9.3-12.8,13.5-51.3,2.1-53.5c-11.4-2.1-173.2,7.8-180.4,2.9c-7.1-5-10.7-14.3-2.9-18.5
           s152.6,5,156.8-4.3s0.7-50.6-3.6-56.3s-151.8-1.4-151.8-1.4"/>
  </circle>
</svg>
