<?xml version="1.0" encoding="utf-8"?>
<!-- Generator: Adobe Illustrator 25.0.1, SVG Export Plug-In . SVG Version: 6.00 Build 0)  -->
<svg version="1.1" id="Warstwa_1" xmlns="http://www.w3.org/2000/svg" xmlns:xlink="http://www.w3.org/1999/xlink" x="0px" y="0px"
	 viewBox="0 0 595.3 841.9" style="enable-background:new 0 0 595.3 841.9;" xml:space="preserve">
<style type="text/css">
	.st0{fill:none;}
</style>
<g id="Warstwa_2_1_">
</g>
<image style="overflow:visible;" width="1574" height="1633" xlink:href="wbbaby24white2.png"  transform="matrix(0.24 0 0 0.24 104.4554 302.4838)">
</image>
<path class="st0" d="M209.2,351.6c0,0-34.9-42.8-70.6-4.3s19.2,79.1,25,73.4c5.7-5.7-15.7,51.3-15.7,51.3l-0.7,168.2
	c0,0,39.2,5,49.2-2.1s-2.9-154,7.8-155.4s17.1,3.6,17.1,3.6l-2.1,197.5c0,0,49.9,7.1,56.3-0.7c6.4-7.8-3.6-187.5,1.4-198.2
	c5-10.7,166.8,8.6,176.1-4.3c9.3-12.8,13.5-51.3,2.1-53.5c-11.4-2.1-173.2,7.8-180.4,2.9c-7.1-5-10.7-14.3-2.9-18.5
	s152.6,5,156.8-4.3s0.7-50.6-3.6-56.3s-151.8-1.4-151.8-1.4"/>
</svg>
