<?xml version="1.0" encoding="utf-8"?>
<!-- Generator: Adobe Illustrator 25.0.1, SVG Export Plug-In . SVG Version: 6.00 Build 0)  -->
<svg version="1.1" id="Warstwa_1" xmlns="http://www.w3.org/2000/svg" xmlns:xlink="http://www.w3.org/1999/xlink" x="0px" y="0px"
	 viewBox="0 0 595.28 841.89" style="enable-background:new 0 0 595.28 841.89;" xml:space="preserve">
<style type="text/css">
	.st0{fill:#FFFFFF;stroke:#FFFFFF;stroke-width:23.1485;stroke-miterlimit:10;}
	.st1{fill:#FFFFFF;stroke:#FFFFFF;stroke-width:21.4949;stroke-miterlimit:10;}
</style>
<g>
	<path class="st0" d="M166.27,520.86c0,3.44-2.89,6.24-6.44,6.24h-10.31c-3.55,0-6.44-2.81-6.44-6.24V364.08
		c0-3.44,2.89-6.24,6.44-6.24h10.31c3.55,0,6.44,2.81,6.44,6.24V520.86z"/>
	<path class="st0" d="M230.65,560.22c0,4.24-3.16,7.67-7.04,7.67h-11.3c-3.91,0-7.04-3.44-7.04-7.67V365.54
		c0-4.24,3.16-7.67,7.04-7.67h11.3c3.91,0,7.04,3.44,7.04,7.67V560.22z"/>
	<path class="st0" d="M295,560.57c0,4.04-3.16,7.32-7.04,7.32h-11.3c-3.88,0-7.04-3.27-7.04-7.32V363.5c0-4.04,3.16-7.32,7.04-7.32
		h11.3c3.91,0,7.04,3.27,7.04,7.32V560.57z"/>
	<path class="st0" d="M151.42,527.11c-1.13,0-2.06-3-2.06-6.68v-10.7c0-3.69,0.91-6.68,2.06-6.68h55.41c1.13,0,2.06,3,2.06,6.68
		v10.7c0,3.69-0.91,6.68-2.06,6.68H151.42z"/>
	<path class="st0" d="M216.49,567.89c-1.4,0-2.53-3.27-2.53-7.32v-11.74c0-4.04,1.13-7.32,2.53-7.32h67.96
		c1.4,0,2.53,3.27,2.53,7.32v11.74c0,4.04-1.13,7.32-2.53,7.32H216.49z"/>
	<path class="st0" d="M428.69,250.58c3.33,0,6-3,6-6.68v-10.7c0-3.69-2.7-6.68-6-6.68H277.65c-3.33,0-6,3-6,6.68v10.7
		c0,3.69,2.7,6.68,6,6.68H428.69z"/>
	<path class="st0" d="M466.39,316.31c4.1,0,7.4-3.27,7.4-7.32v-11.74c0-4.04-3.33-7.32-7.4-7.32H278.86c-4.1,0-7.4,3.27-7.4,7.32
		v11.74c0,4.04,3.33,7.32,7.4,7.32H466.39z"/>
	<path class="st0" d="M466.8,382.56c3.88,0,7.04-3.27,7.04-7.32v-11.72c0-4.04-3.16-7.32-7.04-7.32H276.96
		c-3.91,0-7.04,3.27-7.04,7.32v11.72c0,4.04,3.16,7.32,7.04,7.32H466.8z"/>
	<path class="st0" d="M434.57,234.82c0-1.18-2.89-2.15-6.44-2.15h-10.31c-3.55,0-6.44,0.96-6.44,2.15v57.53
		c0,1.18,2.89,2.15,6.44,2.15h10.31c3.55,0,6.44-0.96,6.44-2.15V234.82z"/>
	<path class="st0" d="M473.79,302.89c0-1.46-3.16-2.61-7.04-2.61h-11.3c-3.88,0-7.04,1.18-7.04,2.61v70.54
		c0,1.46,3.16,2.61,7.04,2.61h11.3c3.88,0,7.04-1.18,7.04-2.61V302.89z"/>
	<path class="st1" d="M231.72,257.51c0,32.2-25.14,58.3-56.16,58.3s-56.16-26.1-56.16-58.3s25.14-58.3,56.16-58.3
		C206.59,199.21,231.72,225.31,231.72,257.51z"/>
</g>
</svg>
